<?xml version="1.0" standalone="no"?><!DOCTYPE svg PUBLIC "-//W3C//DTD SVG 1.1//EN" "http://www.w3.org/Graphics/SVG/1.1/DTD/svg11.dtd"><svg t="1551161447539" class="icon" style="" viewBox="0 0 1024 1024" version="1.1" xmlns="http://www.w3.org/2000/svg" p-id="8467" xmlns:xlink="http://www.w3.org/1999/xlink" width="200" height="200"><defs><style type="text/css">@font-face { font-weight: 400; font-style: normal; font-family: Inter-Loom; src: url("https://cdn.useloom.com/assets/fonts/inter/Inter-UI-Regular.woff2") format("woff2"); }
@font-face { font-weight: 400; font-style: italic; font-family: Inter-Loom; src: url("https://cdn.useloom.com/assets/fonts/inter/Inter-UI-Italic.woff2") format("woff2"); }
@font-face { font-weight: 500; font-style: normal; font-family: Inter-Loom; src: url("https://cdn.useloom.com/assets/fonts/inter/Inter-UI-Medium.woff2") format("woff2"); }
@font-face { font-weight: 500; font-style: italic; font-family: Inter-Loom; src: url("https://cdn.useloom.com/assets/fonts/inter/Inter-UI-MediumItalic.woff2") format("woff2"); }
@font-face { font-weight: 700; font-style: normal; font-family: Inter-Loom; src: url("https://cdn.useloom.com/assets/fonts/inter/Inter-UI-Bold.woff2") format("woff2"); }
@font-face { font-weight: 700; font-style: italic; font-family: Inter-Loom; src: url("https://cdn.useloom.com/assets/fonts/inter/Inter-UI-BoldItalic.woff2") format("woff2"); }
@font-face { font-weight: 900; font-style: normal; font-family: Inter-Loom; src: url("https://cdn.useloom.com/assets/fonts/inter/Inter-UI-Black.woff2") format("woff2"); }
@font-face { font-weight: 900; font-style: italic; font-family: Inter-Loom; src: url("https://cdn.useloom.com/assets/fonts/inter/Inter-UI-BlackItalic.woff2") format("woff2"); }
</style></defs><path d="M880.64 473.6c0-7.68 2.56-17.92 2.56-25.6C883.2 256 721.92 102.4 524.8 102.4s-358.4 153.6-358.4 345.6c0 7.68 0 17.92 2.56 25.6-30.72 17.92-53.76 51.2-53.76 89.6v153.6c0 56.32 46.08 102.4 102.4 102.4h102.4c53.76-2.56 102.4-48.64 102.4-102.4v-153.6c0-56.32-46.08-102.4-102.4-102.4h-102.4c0-171.52 138.24-307.2 307.2-307.2s307.2 125.44 307.2 307.2h-102.4c-56.32 0-102.4 46.08-102.4 102.4v153.6c0 53.76 48.64 99.84 102.4 102.4h51.2v76.8c0 15.36 10.24 25.6 25.6 25.6s25.6-10.24 25.6-25.6v-76.8c56.32 0 102.4-46.08 102.4-102.4v-153.6c0-38.4-20.48-71.68-53.76-89.6zM286.72 512h33.28c28.16 0 51.2 23.04 51.2 51.2v153.6c0 28.16-23.04 51.2-51.2 51.2h-23.04c-17.92-40.96-28.16-89.6-28.16-140.8 0-40.96 7.68-79.36 17.92-115.2z m-53.76 0c-10.24 35.84-15.36 74.24-15.36 115.2 0 51.2 10.24 97.28 23.04 140.8h-23.04c-28.16 0-51.2-23.04-51.2-51.2v-153.6c0-28.16 23.04-51.2 51.2-51.2h15.36z m519.68 256h-23.04c-28.16 0-51.2-23.04-51.2-51.2v-153.6c0-28.16 23.04-51.2 51.2-51.2h33.28c12.8 35.84 17.92 74.24 17.92 115.2 0 51.2-10.24 99.84-28.16 140.8z m130.56-51.2c0 28.16-23.04 51.2-51.2 51.2h-23.04c15.36-43.52 23.04-89.6 23.04-140.8 0-40.96-5.12-79.36-15.36-115.2h15.36c28.16 0 51.2 23.04 51.2 51.2v153.6z" p-id="8468"></path></svg>